  <svg width="30" height="30" viewBox="0 0 24 24" fill="none" xmlns="http://www.w3.org/2000/svg">
    <path fill-rule="evenodd" clip-rule="evenodd" d="M12 0C5.373 0 0 5.373 0 12c0 5.302 3.438 9.8 8.207 11.387.6.11.793-.26.793-.577 0-.285-.012-1.041-.018-2.042-3.338.724-4.042-1.346-4.042-1.346-.546-1.385-1.332-1.755-1.332-1.755-1.09-.744.083-.728.083-.728 1.205.085 1.838 1.238 1.838 1.238 1.07 1.834 2.808 1.304 3.495.997.108-.777.419-1.305.763-1.605-2.675-.305-5.491-1.337-5.491-5.93 0-1.31.465-2.383 1.234-3.223-.124-.304-.536-1.526.117-3.176 0 0 1.007-.322 3.3 1.23.958-.266 1.982-.398 3.002-.402 1.02.004 2.044.136 3.004.402 2.29-1.552 3.296-1.23 3.296-1.23.654 1.65.242 2.872.118 3.176.772.84 1.232 1.913 1.232 3.223 0 4.605-2.82 5.622-5.497 5.922.432.372.81 1.103.81 2.224 0 1.607-.015 2.896-.015 3.287 0 .32.188.695.8.576C20.566 21.795 24 17.304 24 12c0-6.627-5.373-12-12-12z" fill="#21243D"/>
  </svg>