<svg width="30" height="30" viewBox="0 0 24 24" fill="none" xmlns="http://www.w3.org/2000/svg">
  <path d="M12 0C5.373 0 0 5.373 0 12c0 6.627 5.373 12 12 12s12-5.373 12-12c0-6.627-5.373-12-12-12zm4.072 15.622c.305-.229.519-.581.608-1.02.085-.413.063-.864-.155-1.317-.275-.557-.739-.92-1.416-1.095-.691-.185-1.282-.055-1.802.36-.506.409-.788.991-.857 1.75a3.812 3.812 0 0 0 .442 1.85c.297.48.787.717 1.468.717.37 0 .689-.086.955-.255.281-.172.433-.294.451-.367.045-.218-.221-.408-.706-.586-.325-.118-.713-.308-1.168-.57l-.527-.299c-.474-.272-.849-.515-1.12-.736-.278-.219-.505-.494-.679-.822-.183-.34-.275-.759-.275-1.265 0-.699.15-1.277.45-1.731.308-.47.72-.792 1.242-.964.528-.177 1.048-.16 1.552.048.295.117.537.272.726.474.172.197.287.421.352.672.058.237.029.49-.085.754-.112.276-.262.545-.447.807-.158.222-.394.45-.707.683l-.42.368c-.482.418-.866.79-1.152 1.116-.302.339-.547.734-.731 1.191-.173.435-.262.941-.262 1.514 0 .92.206 1.678.613 2.273.422.608 1.034.91 1.843.91.481 0 .896-.118 1.246-.353.339-.226.567-.496.679-.81.113-.309.155-.646.122-1.006-.042-.458-.153-.84-.33-1.147-.174-.302-.422-.58-.743-.83l-.373-.254zM10.185 7.79c-.501 0-.91.132-1.227.396-.318.264-.475.614-.475 1.05 0 .479.156.836.475 1.074.318.231.726.345 1.227.345.511 0 .92-.114 1.238-.343.319-.229.479-.585.479-1.069 0-.449-.16-.799-.479-1.048-.318-.25-.727-.375-1.238-.375zm.003 9.724c-.661 0-1.188-.215-1.571-.644-.388-.427-.593-1.017-.613-1.768v-.314c.059-.937.334-1.673.828-2.208.494-.53 1.189-.796 2.086-.796.697 0 1.27.157 1.719.47.453.314.717.765.791 1.35v.237h-2.071c-.025.619.134 1.103.452 1.446.314.334.769.503 1.367.503.513 0 .944-.122 1.295-.365.347-.245.523-.606.523-1.08 0-.359-.09-.652-.268-.874-.181-.227-.438-.34-.776-.34-.399 0-.7.145-.903.435-.204.288-.311.717-.32 1.287h-2.017c.021-.61.202-1.097.545-1.46.348-.368.836-.553 1.463-.553.62 0 1.076.162 1.372.485.296.325.449.784.463 1.381 0 .463-.106.865-.314 1.203-.203.338-.504.584-.899.738-.398.15-.862.226-1.389.226z" fill="#21243D"/>
</svg>
